<svg width="166" height="156" viewBox="0 0 166 156" fill="none" xmlns="http://www.w3.org/2000/svg">
<path d="M2.00007 36.9454C20.4151 38.9799 38.727 42.5832 56.0781 48.9987C73.4294 55.4211 89.8292 64.7309 103.308 77.3722C105.847 79.7519 108.331 82.3258 109.708 85.5244C111.085 88.7231 111.159 92.6945 109.069 95.5111C108.146 96.7536 106.871 97.6934 105.547 98.4875C97.5178 103.321 86.8218 103.277 78.8941 98.3802C75.5546 96.3187 72.4511 92.5461 73.6921 88.7968C74.8293 85.3568 78.9525 83.9744 82.551 83.6136C89.8268 82.8857 97.1372 84.3084 104.175 86.2422C126.005 92.2539 146.395 103.361 163.259 118.426" stroke="#EA3D0E" stroke-width="4" stroke-miterlimit="10" stroke-linecap="round"/>
</svg>
