<svg width="185" height="174" viewBox="0 0 185 174" fill="none" xmlns="http://www.w3.org/2000/svg">
<path d="M1.99997 41.3145C22.5927 43.5896 43.0701 47.619 62.4732 54.7932C81.8764 61.9751 100.216 72.3859 115.288 86.5222C118.128 89.1832 120.905 92.0616 122.445 95.6384C123.986 99.2153 124.067 103.656 121.731 106.806C120.699 108.195 119.273 109.246 117.792 110.135C108.814 115.539 96.8525 115.49 87.9874 110.015C84.2529 107.709 80.7824 103.49 82.1702 99.2978C83.4418 95.451 88.0527 93.905 92.0767 93.5016C100.213 92.6877 108.388 94.2785 116.258 96.4411C140.67 103.164 163.471 115.584 182.329 132.431" stroke="#EA3D0E" stroke-width="4" stroke-miterlimit="10" stroke-linecap="round"/>
</svg>
