<svg width="30" height="32" viewBox="0 0 30 32" fill="none" xmlns="http://www.w3.org/2000/svg">
<path d="M11.7461 29.8548C11.8304 30.7487 11.4411 31.1891 10.5585 31.1891H1.31738C0.441288 31.1891 0 30.7422 0 29.8548V1.33433C0 0.446967 0.441288 0 1.31738 0H8.3131C9.18918 0 9.85112 0.400954 10.4222 1.07141L15.6138 7.35524C16.0097 7.80221 16.3147 8.24918 16.9312 8.24918C17.6321 8.24918 17.8527 7.71676 17.8073 7.13176L17.3271 1.3409C17.2362 0.453541 17.6775 0.00656944 18.5601 0.00656944H27.8012C28.6838 0.00656944 29.1185 0.453541 29.1185 1.3409V29.8614C29.1185 30.7553 28.6773 31.1957 27.8012 31.1957H20.8055C19.9294 31.1957 19.2674 30.8408 18.6509 30.1703L13.5502 24.2874C13.1997 23.8405 12.8493 23.4395 12.2328 23.4395C11.5319 23.4395 11.2658 23.9719 11.3113 24.5504L11.7526 29.8548H11.7461Z" fill="#EA3D0E"/>
</svg>
