<svg width="24" height="32" viewBox="0 0 24 32" fill="none" xmlns="http://www.w3.org/2000/svg">
<path d="M13.4139 19.6074C12.6676 19.6074 12.3107 19.9624 12.3107 20.7248C12.3107 21.4873 12.6611 21.8357 13.4139 21.8357H22.4343C23.3104 21.8357 23.7517 22.2826 23.7517 23.17V29.8548C23.7517 30.7487 23.3104 31.1891 22.4343 31.1891H1.31738C0.441288 31.1891 0 30.7422 0 29.8548V1.33433C0 0.446967 0.441288 0 1.31738 0H22.4343C23.3104 0 23.7517 0.446967 23.7517 1.33433V8.01913C23.7517 8.91306 23.3104 9.35346 22.4343 9.35346H13.4139C12.6676 9.35346 12.3107 9.70839 12.3107 10.4643C12.3107 11.2202 12.6611 11.5817 13.4139 11.5817H21.1105C21.993 11.5817 22.4278 12.0287 22.4278 12.9161V18.2665C22.4278 19.1539 21.9865 19.6008 21.1105 19.6008H13.4139V19.6074Z" fill="#EA3D0E"/>
</svg>
