<svg width="25" height="25" viewBox="0 0 25 25" fill="none" xmlns="http://www.w3.org/2000/svg">
<g clip-path="url(#clip0_147_416)">
<path d="M23.7012 9.68663C20.5693 7.01094 17.9883 4.42902 15.3123 1.2986C13.8331 -0.432449 11.1654 -0.432449 9.68502 1.2986C7.00909 4.43019 4.4281 7.01094 1.29621 9.68663C-0.435 11.1657 -0.435 13.8332 1.29621 15.3134C4.4281 17.9891 7.00909 20.571 9.68502 23.7014C11.1642 25.4325 13.832 25.4325 15.3123 23.7014C17.9883 20.5698 20.5704 17.9891 23.7012 15.3134C25.4324 13.8343 25.4324 11.1669 23.7012 9.68663ZM12.4981 16.823C10.1105 16.823 8.17534 14.888 8.17534 12.5006C8.17534 10.1132 10.1105 8.17826 12.4981 8.17826C14.8857 8.17826 16.8208 10.1132 16.8208 12.5006C16.8208 14.888 14.8857 16.823 12.4981 16.823Z" fill="#EA3D0E"/>
<path d="M13.9283 8.80526C12.6085 8.80526 11.5383 9.8753 11.5383 11.195C11.5383 12.5146 12.6085 13.5847 13.9283 13.5847C15.2481 13.5847 16.3182 12.5146 16.3182 11.195C16.3182 9.8753 15.2481 8.80526 13.9283 8.80526ZM15.0136 11.1329C14.5061 11.1329 14.0947 10.7215 14.0947 10.214C14.0947 9.70653 14.5061 9.29516 15.0136 9.29516C15.5212 9.29516 15.9326 9.70653 15.9326 10.214C15.9326 10.7215 15.5212 11.1329 15.0136 11.1329Z" fill="#EA3D0E"/>
</g>
<defs>
<clipPath id="clip0_147_416">
<rect width="25" height="25" fill="white"/>
</clipPath>
</defs>
</svg>
