<svg width="30" height="32" viewBox="0 0 30 32" fill="none" xmlns="http://www.w3.org/2000/svg">
<path d="M8.72121 24.1494C8.72121 23.0386 8.50056 22.0132 8.1047 20.9878L0.142046 1.24888C-0.208389 0.400952 0.096615 0 0.979192 0H12.0244C12.9005 0 13.3418 0.446967 13.4326 1.33433L13.9193 7.34867C13.9648 8.05856 14.2698 8.46609 14.8863 8.46609C15.4574 8.46609 15.8078 8.06514 15.8532 7.34867L16.3399 1.33433C16.4308 0.446967 16.8656 0 17.7482 0H28.7933C29.6694 0 29.9809 0.400952 29.6305 1.24888L21.6678 20.9878C21.272 22.0132 21.0513 23.0386 21.0513 24.1494V29.8548C21.0513 30.7487 20.61 31.1891 19.7339 31.1891H10.0581C9.18197 31.1891 8.74068 30.7422 8.74068 29.8548V24.1494H8.72121Z" fill="#EA3D0E"/>
</svg>
