<svg width="31" height="33" viewBox="0 0 31 33" fill="none" xmlns="http://www.w3.org/2000/svg">
<path d="M14.6923 12.0418C13.3749 12.0418 12.5378 13.5997 12.5378 16.0054C12.5378 18.4111 13.641 20.061 15.3997 20.061C16.7171 20.061 17.5088 19.4825 17.9046 18.4111C18.2551 17.4777 18.7418 17.1162 19.5335 17.1162H29.4755C30.3581 17.1162 30.7929 17.5632 30.7085 18.4506C29.8259 27.85 24.1541 32.0831 15.3997 32.0831C6.64529 32.0831 0 27.1401 0 16.0383C0 4.93637 6.15857 0 14.7377 0C23.3169 0 28.5085 4.23305 29.3457 13.5471C29.4365 14.441 28.9953 14.8814 28.1127 14.8814H18.1707C17.3336 14.8814 16.8923 14.5264 16.5873 13.5865C16.2823 12.5611 15.7047 12.0287 14.6988 12.0287L14.6923 12.0418Z" fill="#EA3D0E"/>
</svg>
